<!-- <svg xmlns="http://www.w3.org/2000/svg" width="382" height="390" viewBox="0 0 382 390" version="1.1"><path d="M 128.674 0.659 C 128.045 1.289, 130.013 4.649, 134.143 10 C 140.717 18.515, 140.238 26.613, 132.262 41.822 C 119.275 66.583, 119.633 74.269, 134.500 90 C 140.843 96.711, 143.925 100.807, 144.780 103.659 C 146.939 110.866, 145.978 111.678, 142.880 105.263 C 135.540 90.064, 113.183 81.896, 94.285 87.508 C 86.631 89.781, 86.856 91.375, 95.299 94.684 C 103.469 97.886, 108.787 102.673, 112.655 110.306 C 114.014 112.987, 116.967 117.179, 119.219 119.622 L 123.313 124.063 118.906 122.182 C 111.481 119.013, 108.082 118.859, 94.936 121.092 C 77.897 123.987, 75.343 123.592, 59.611 115.636 C 36.774 104.087, 22.002 102.625, 6 110.333 C -0.549 113.487, 0.208 114.800, 10.666 118.436 C 24.249 123.157, 27.577 126.296, 33.482 139.958 C 44.274 164.927, 52.696 170.846, 72.674 167.506 C 83.989 165.614, 94.169 166.429, 102.194 169.869 C 107.773 172.260, 108.476 171.836, 110.972 164.583 C 113.345 157.684, 117.330 150.998, 124.642 141.648 C 127.589 137.879, 130 134.204, 130 133.481 C 130 132.758, 130.563 131.977, 131.250 131.746 C 132.203 131.425, 132.143 130.891, 131 129.499 C 129.590 127.783, 129.641 127.748, 131.843 128.921 C 134.040 130.092, 136.273 129.943, 140.657 128.331 C 141.671 127.958, 140.250 129.382, 137.500 131.495 C 81.854 174.253, 112.218 262.965, 182.500 262.965 C 260.733 262.965, 284.101 156.703, 213.238 123.190 L 207.099 120.287 210.940 119.136 C 215.148 117.876, 221.331 111.752, 223.553 106.645 C 224.306 104.915, 224.939 104.114, 224.961 104.865 C 225.032 107.349, 219.859 115.728, 216.905 117.912 C 213.283 120.590, 213.248 121.600, 216.750 122.452 C 223.646 124.131, 237.054 135.478, 243.646 145.216 C 250.151 154.823, 251.879 155.116, 260.738 148.113 C 271.445 139.649, 275.102 129.223, 272.842 113.597 C 271.097 101.524, 271.922 99.492, 283.028 88.521 C 296.289 75.420, 301.422 63.396, 301.395 45.500 C 301.371 30.504, 296.982 25.301, 293.170 35.750 C 287.267 51.929, 280.649 56.711, 258.982 60.450 C 241.055 63.543, 231.026 73.381, 227.718 91.117 L 226.341 98.500 225.830 90.889 C 225.022 78.870, 212.671 57.935, 204.940 55.481 C 201.861 54.504, 201.824 55.024, 204.507 61.552 C 208.764 71.906, 207.891 80.780, 201.770 89.400 C 200.060 91.807, 198.967 94.678, 198.915 96.900 C 198.833 100.360, 198.782 100.306, 197.594 95.500 C 195.265 86.074, 187.754 77.173, 175.790 69.661 C 168.128 64.850, 166.096 60.739, 164.893 47.614 C 163.772 35.375, 163.251 33.733, 158.084 26.123 C 149.846 13.993, 131.353 -2.019, 128.674 0.659 M 199.158 106 C 199.158 107.375, 199.385 107.938, 199.662 107.250 C 199.940 106.563, 199.940 105.438, 199.662 104.750 C 199.385 104.063, 199.158 104.625, 199.158 106 M 197.178 112.367 L 195.856 116.041 189.178 115.439 C 185.505 115.107, 181.891 114.645, 181.147 114.410 C 176.158 112.838, 153.853 118.002, 151.886 121.185 C 150.561 123.328, 148.130 121.068, 147.177 116.808 L 146.214 112.500 146.107 117.816 C 146.048 120.739, 145.517 124.034, 144.927 125.137 C 143.897 127.061, 143.952 127.078, 146.271 125.558 C 158.426 117.594, 186.407 114.051, 200.816 118.651 C 202.180 119.087, 202.230 118.997, 201.079 118.179 C 200.297 117.624, 199.397 115.263, 199.079 112.932 L 198.500 108.694 197.178 112.367 M 297.689 126.012 C 294.444 135.149, 286.368 140.204, 269.772 143.487 C 261.947 145.035, 251.698 158.581, 254.399 163.804 C 265.123 184.543, 301.647 163.228, 302.803 135.556 C 303.380 121.731, 300.872 117.050, 297.689 126.012 M 298.007 159.593 C 296.086 160.426, 293.611 161.955, 292.507 162.991 C 288.608 166.649, 277.058 171.232, 269.175 172.249 C 257.984 173.692, 258.647 173.171, 259.269 180.027 C 259.863 186.583, 258.964 195.789, 256.418 209.215 C 253.715 223.472, 257.556 227.689, 272.839 227.243 C 285.732 226.867, 287.180 226.119, 299.621 213.398 C 312.375 200.357, 311.167 200.778, 327 203.850 C 345.062 207.354, 359.041 202.704, 374.328 188.110 C 384.146 178.737, 384.085 175.282, 374.183 179.846 C 366.324 183.469, 359.562 183.950, 351.242 181.479 C 346.376 180.034, 342.954 177.725, 329.387 166.729 C 319.885 159.027, 306.389 155.958, 298.007 159.593 M 71.500 171.771 C 59.318 175.926, 50.311 183.614, 44.638 194.700 C 41.363 201.100, 42.284 202.193, 48.250 198.982 C 56.393 194.598, 65.222 192.678, 73.500 193.489 C 96.870 195.781, 107.273 191.934, 107.273 181 C 107.273 169.375, 90.904 165.153, 71.500 171.771 M 90.415 198.343 C 79.018 202.624, 75.974 205.742, 68.615 220.676 C 62.159 233.777, 60.715 234.922, 44.339 239.926 C 28.654 244.719, 17.798 253.974, 11.996 267.500 C 7.387 278.244, 8.893 289.172, 13.995 282.007 C 19.534 274.228, 34.038 270.796, 49.648 273.571 C 77.031 278.439, 90.693 274.753, 97.378 260.693 C 99.919 255.348, 104.606 250.212, 109 247.957 C 110.375 247.251, 108.966 248.993, 105.869 251.828 C 93.307 263.328, 91.339 288.152, 102.082 299.587 C 105.242 302.951, 105.639 302.695, 106.332 296.842 C 106.694 293.785, 108.014 290.066, 109.573 287.711 C 112.870 282.728, 129.196 266.806, 128.384 269.365 C 125.901 277.188, 128.383 287.324, 136.475 302.410 C 143.065 314.696, 143.123 315.494, 138.035 324.057 C 130.058 337.485, 129.899 354.961, 137.611 370.630 C 139.775 375.027, 141.344 379.932, 141.704 383.426 C 143.051 396.468, 150.917 384.567, 150.976 369.399 C 151.018 358.818, 155.125 352.957, 169.132 343.487 C 186.990 331.414, 190.005 322.672, 183.960 300.500 C 179.935 285.737, 179.581 277.366, 182.730 271.392 L 184.895 267.285 177.650 266.672 C 169.560 265.988, 160.521 263.436, 148.307 258.387 C 138.386 254.286, 136.781 254.215, 133.916 257.750 C 132.332 259.705, 131.906 259.922, 132.442 258.500 C 134.752 252.381, 134.341 249.377, 130.862 246.948 C 129.013 245.657, 127.140 244.015, 126.700 243.300 C 126.260 242.585, 124.743 242, 123.328 242 C 121.192 242, 120.960 241.753, 121.960 240.548 C 123.572 238.606, 122.578 235.881, 118.459 230.951 C 113.074 224.505, 108.174 213.491, 106.692 204.500 L 105.374 196.500 100.937 196.279 C 98.261 196.145, 94.085 196.964, 90.415 198.343 M 252.916 224.984 C 248.926 227.326, 245.724 233.770, 246.889 237.113 C 248.257 241.036, 248.269 242.066, 246.920 239.750 C 245.407 237.153, 244.465 237.537, 239.771 242.663 C 234.172 248.776, 219.950 258.080, 210.943 261.522 L 203.772 264.262 204.287 267.881 C 204.571 269.871, 205.129 272.400, 205.529 273.500 C 205.928 274.600, 204.900 273.431, 203.246 270.903 C 195.652 259.298, 182 266.023, 182 281.368 C 182 301.374, 194.245 317.896, 211.762 321.527 C 223.846 324.031, 227.499 321.713, 219.466 316.638 C 213.332 312.763, 212.119 309.920, 210.529 295.696 C 209.780 288.988, 208.710 282.315, 208.152 280.867 C 207.318 278.700, 207.988 279.083, 211.936 283.031 C 217.128 288.223, 223.739 290.869, 240.500 294.463 C 250.346 296.574, 257.390 303.048, 265.395 317.344 C 271.493 328.234, 276.707 332.985, 286.294 336.384 C 307.436 343.881, 322.002 340.697, 306.750 331.913 C 291.256 322.990, 290.542 321.356, 291.525 297.066 C 292.500 272.944, 289.866 265.528, 278.217 259.608 L 273.631 257.277 281.290 257.768 C 290.350 258.350, 295.476 256.335, 305.494 248.256 C 314.582 240.927, 314.227 240.158, 301.806 240.268 C 290.070 240.372, 285.646 238.948, 278.155 232.652 C 275.320 230.269, 272.793 229, 270.880 229 C 268.417 229, 263.299 227.501, 256 224.641 C 255.175 224.318, 253.787 224.472, 252.916 224.984 M 251.911 246.337 C 253.373 248.157, 259 252.442, 259 251.735 C 259 251.515, 257.087 249.815, 254.750 247.957 C 252.412 246.100, 251.135 245.370, 251.911 246.337" stroke="none" fill="#d19125" fill-rule="evenodd"/></svg> -->

<svg
   width="20.5278in"
   height="20.5278in"
   viewBox="0 0 1478 1478"
   version="1.1"
   id="svg2"
   sodipodi:docname="sun.svg"
   inkscape:version="1.3.2 (091e20e, 2023-11-25)"
   xmlns:inkscape="http://www.inkscape.org/namespaces/inkscape"
   xmlns:sodipodi="http://sodipodi.sourceforge.net/DTD/sodipodi-0.dtd"
   xmlns="http://www.w3.org/2000/svg"
   xmlns:svg="http://www.w3.org/2000/svg">
  <sodipodi:namedview
     id="namedview2"
     pagecolor="#ffffff"
     bordercolor="#000000"
     borderopacity="0.25"
     inkscape:showpageshadow="2"
     inkscape:pageopacity="0.0"
     inkscape:pagecheckerboard="0"
     inkscape:deskcolor="#d1d1d1"
     inkscape:document-units="in"
     inkscape:zoom="0.41255031"
     inkscape:cx="984.12241"
     inkscape:cy="985.33438"
     inkscape:window-width="1920"
     inkscape:window-height="1011"
     inkscape:window-x="0"
     inkscape:window-y="32"
     inkscape:window-maximized="1"
     inkscape:current-layer="svg2" />
  <defs
     id="defs2">
    <radialGradient
       id="SolarGradient"
       gradientTransform="matrix(0.98963807,0,0,1.0104704,-0.11820794,52.112291)"
       cx="746.85711"
       cy="679.77025"
       fx="746.85711"
       fy="679.77025"
       r="660.96713"
       gradientUnits="userSpaceOnUse">
      <stop
         offset="40%"
         stop-color="#cc8a21"
         id="stop1" />
      <stop
         offset="100%"
         stop-color="#eaac2b"
         id="stop2" />
    </radialGradient>
  </defs>
  <path
     id="Selection"
     fill="url(#SolarGradient)"
     stroke="none"
     stroke-width="1"
     d="m 524.88179,71.112291 c 6.69,1.59 8.15,3.41 14,6.22 13.05,6.27 15.01,6.54 27,15.99 19.36,15.269999 19.09,17.439999 34.28,34.789999 0,0 13.26,15 13.26,15 6.11,7.47 24.6,34.66 28.01,43 3.83,9.39 5.43,20.89 5.45,31 0,0 2,23 2,23 0,0 0,8 0,8 1.41,13.05 5.19,26.35 11.26,38 9.66,18.54 30.93,25.15 46.74,37.24 11.27,8.61 34.14,30.2 41.56,41.76 9.39,14.62 16.41,43.57 16.44,61 0.02,14.47 0.4,17.33 -5.73,31 -1.75,3.9 -3.83,8.64 -8.28,10.02 -2.95,0.91 -6.12,-0.43 -8.99,-1.12 0,0 -15,-2.63 -15,-2.63 -13.87,-2.04 -28.93,-1.43 -43,-1.27 0,0 -16,1.72 -16,1.72 -18.37,2.4 -30.45,3.77 -48,10.88 -4.95,2.01 -8.92,3.91 -12.91,7.58 -2.66,2.45 -5.6,6.88 -9.87,5.2 -3.82,-1.5 -6.42,-11.58 -7.22,-15.38 0,0 -8.72,-46 -8.72,-46 -4.78,-15.87 -16.14,-29.85 -28.28,-40.83 0,0 -13.83,-12.34 -13.83,-12.34 -15.48,-15.47 -26.2,-28.32 -31.54,-49.83 -1.36,-5.45 -2.81,-13.43 -2.59,-19 0.32,-8.17 3.65,-20.97 5.96,-29 6.7,-23.35 8.84,-26.87 19.74,-48 0,0 7.57,-15 7.57,-15 5.41,-9.85 8.58,-12.13 14.38,-25 3.02,-6.71 4.68,-14.78 6.11,-22 0.77,-3.87 2.28,-12.31 2.02,-16 -0.88,-12.31 -4.35,-27.4 -10.74,-38 0,0 -14.3,-18.999999 -14.3,-18.999999 0,0 -5.87,-10 -5.87,-10 -2.62,-4.1 -4.05,-5.21 -5.91,-10 z m 294,415.999999 c 2.54,-10.27 11.86,-12.69 18.56,-20.09 7.8,-8.61 12.5,-19.35 17.01,-29.91 5.45,-12.75 8.14,-38.34 10.89,-53 1.32,-7.03 5.53,-25.91 7.99,-32 6.73,-16.66 16.41,-28.04 28.46,-41 5.72,-6.15 8.63,-10.62 16.09,-15.45 36.29,-23.51 76.23,-14.5 116.00001,-33.33 4.92,-2.33 20.27,-10.51 23.91,-13.69 11.13,-9.7 20.19,-27.49 26.83,-40.53 0,0 9.94,-25 9.94,-25 0.82,-2.19 2.87,-8.83 4.83,-9.85 2.16,-1.12 4.68,0.8 6.19,2.19 3.45,3.19 7.67,10.17 9.2,14.66 1.96,5.77 4.24,31.41 4.09,38 0,0 -0.9,9 -0.9,9 -1.17,17.07 -3.6,36.76 -9.17,53 0,0 -7.91,19 -7.91,19 -9.19,22.28 -8.88,24.64 -25.44,44 -22.79,26.67 -60.02,43.14 -59.57,83 0.11,9.81 3.04,18.53 4.56,28 1.73,10.7 1.46,17.39 1.44,28 -0.02,9.69 -4.46,35.4 -8.31,44 -6.86,15.31 -22.56001,32.34 -35.69001,42.58 -5.23,4.07 -20.59,15.5 -27,15.6 -2,0.03 -2.37,-0.47 -4,-1.18 -5.05,4.91 -7.97,1.78 -11.33,-3.02 0,0 -16.33,-23.98 -16.33,-23.98 -16.7,-25.54 -38.69,-44.5 -63.34,-62.14 -8.62,-6.17 -26.46,-16.6 -37,-16.86 z m -41,-227 c 13.6,0.01 14.47,4.47 24,14 0,0 19.59,21 19.59,21 16.24,19.52 28.88,39.72 33.96,65 2.81,13.97 2.61,25.9 2.45,40 -0.18,15.31 -6.36,36.72 -15.48,49 -4.39,5.91 -7.39,8.87 -12.52,14 -12.79,12.77 -26.4,20.82 -45,15.57 -6.33,-1.78 -13.03,-4.3 -16.08,-10.58 -4.33,-8.91 -0.06,-21.4 0.57,-30.99 0.2,-3.04 -0.22,-4.16 -0.53,-7 0,0 0,-8 0,-8 0,0 -1.96,-20 -1.96,-20 -0.01,-3.22 -0.22,-8.01 0.64,-11 2.45,-8.54 13.91,-19.6 18.89,-28 7.45,-12.56 9.63,-27.7 9.47,-42 -0.12,-10.26 -4.59,-29.45 -8.45,-39 -4.33,-10.72 -6.41,-9.72 -9.55,-22 z m -388,122 c -0.87,-6.94 5.59,-7.86 11,-9.67 11.44,-3.81 26.96,-7.31 39,-7.33 21.36,-0.03 15.38,-0.31 36,2.73 31.62,4.66 48.83,10.59 74,31.35 12.44,10.26 15.43,16.91 22.26,30.92 7.23,14.83 10.66,18.93 10.74,36 0,0 0.9,11 0.9,11 0.14,3.19 -0.41,4.98 -0.74,8 -0.78,7.29 -1.24,13.98 -7.34,19.07 -5.06,4.22 -11.71,5.57 -17.82,7.6 -5.09,1.68 -10.6,4.01 -16,2.54 -6.25,-1.7 -17.42,-8.82 -23,-12.54 -17.06,-11.38 -27,-18.2 -38.65,-35.67 0,0 -14.8,-27 -14.8,-27 -3.55,-5.95 -13.86,-18.92 -18.64,-24 -9.68,-10.28 -17.54,-12.94 -29.91,-18.28 0,0 -13,-5.63 -13,-5.63 -11.16,-4 -6.83,-0.57 -19,-8.09 z m -304.999998,81 c 4.48,-8.31 9.86,-10.26 17.999998,-13.86 13.5,-5.97 21.78,-8.44 36,-12.01 16.02,-4.03 24.5,-5.16 41,-5.13 13.69,0.02 21.29,3.77 34,6.58 18.06,3.98 27.65,5.49 45,13.74 0,0 28,15.37 28,15.37 0,0 22,10.56 22,10.56 14.66,7.28 23.23,12.4 40,14.46 7.02,0.87 10.5,-0.18 17,-0.62 0,0 19,-1.37 19,-1.37 0,0 37,-6.47 37,-6.47 18.38,-3.07 24.7,-6.09 44,-2.45 12.48,2.36 34.46,10.29 45,17.16 3.28,2.14 5.1,4.34 8,6.71 3.83,3.15 10.95,6.2 13.26,9.51 3.02,4.32 1.29,7.37 -3.26,8.82 -0.07,2.98 -0.08,5.13 -1.13,8 -2.29,6.23 -16.48,22.04 -21.44,28 -11.85,14.25 -32.69,45.87 -39.37,63 0,0 -8.87,25 -8.87,25 -1.41,3.58 -3.36,8.26 -7.21,9.81 -4.14,1.67 -12.92,-3.67 -16.98,-5.51 -13.42,-6.05 -23.51,-8.41 -38,-10.01 -23.31,-2.93 -35.56,-3.34 -59,0 0,0 -25,5.13 -25,5.13 -3.35,0.75 -7.76,2.38 -11,2.32 0,0 -8,-1.32 -8,-1.32 -17.76,-3.2 -33.33,-11.82 -48,-22.14 -13.59,-9.56 -18.66,-19.17 -26.31,-33.28 0,0 -23.26,-50 -23.26,-50 -4.55,-10.65 -7.16,-19.25 -14.18,-29 -5.53,-7.7 -9.78,-11.2 -17.25,-16.87 -19.99,-15.17 -29.41,-16.64 -52,-24.47 z m 586.999998,11 c 2.82,-3.15 12.7,-2.83 17,-3.04 0,0 9,-0.94 9,-0.94 0,0 18,0 18,0 0,0 14,0.97 14,0.97 4.21,0.12 13.18,-0.13 16,3.01 2.18,-0.62 3.49,-1.08 5.83,-0.75 0,0 19.17,4.33 19.17,4.33 3.43,0.75 6.63,0.67 9,3.42 0,0 23,6 23,6 0,0 13,8 13,8 4.37,-0.2 12.53,3.32 15,7 0,0 14,6 14,6 0,0 19.58,14.68 19.58,14.68 12.05,9.59 23.67,20.45 34,31.9 5.14,5.71 18.36,22.29 22.24,28.42 2.9,4.58 8.96,15.98 12.18,19 0,0 7,15 7,15 0,0 -1,2 -1,2 3.69,2.77 4.32,7.91 6.09,12 3.44,7.91 9.05,24.69 10.71,33 0,0 3.29,21 3.29,21 0,0 1.79,8 1.79,8 0,0 1.12,42 1.12,42 0,0 -1.13,10.28 -1.13,10.28 0,0 0,5.72 0,5.72 0,0 -1.78,7 -1.78,7 -1.93,12.4 -2.21,18.74 -6.16,31.08 0,0 -4.45,14.92 -4.45,14.92 0,0 -3.74,9 -3.74,9 -1.59,4.08 -2.13,8.29 -5.74,11 0,0 1,2 1,2 0,0 -8,13 -8,13 -0.68,5.15 -4.81,10.91 -7.69,15.28 0,0 -15.47,21.71 -15.47,21.71 0,0 -11.94,15.01 -11.94,15.01 -17.07,18.81 -43.56,39.18 -65.9,51.49 0,0 -24,11.1 -24,11.1 -9.59,4.55 -28.44,10.52 -39,12.61 -5.57,1.1 -9.42,3.34 -15,1.8 -3.02,3.39 -12.45,3.18 -17,3.81 -16.95,1.91 -34.03,1.29 -51,0 -4.58,-0.22 -17.18,-0.65 -20,-3.81 -5.53,1.4 -16.05,-2.1 -22,-3.42 -3.29,-0.74 -5.8,-0.9 -8,-3.58 -4.45,0.28 -17.17,-3.51 -20,-7 0,0 -2,1 -2,1 -6.25,-5.09 -21.87,-7.64 -27,-15 -7.25,-0.62 -24.85,-13.84 -31,-18.66 -18.46,-14.46 -35.6,-31.64 -49.76,-50.34 0,0 -5.98,-8.91 -5.98,-8.91 -3.79,-5.32 -8.71,-12.37 -11.66,-18.09 0,0 -6.25,-12 -6.25,-12 0,0 -2.75,-7 -2.75,-7 0,0 -3.51,-7 -3.51,-7 -2.08,-5.09 -2.29,-9.93 -6.09,-14 -0.2,-8.21 -7.63,-21.48 -6,-29 -3.17,-2.79 -3.18,-9.87 -3.72,-14 0,0 -2.28,-24 -2.28,-24 -0.03,-5.9 0.84,-9.62 -2,-15 2.76,-4.95 1.99,-8.49 2,-14 0,0 2.28,-26 2.28,-26 0.54,-4.13 0.55,-11.21 3.72,-14 -1.11,-5.13 0.3,-6.19 1.61,-11 0,0 4,-14.91 4,-14.91 0,0 3.16,-7.13 3.16,-7.13 1.43,-3.81 1.97,-8.32 5.23,-10.96 0.6,-7.36 11.2,-26.32 15.5,-33 17.02,-26.44 37.31,-50.2 62.5,-69.32 0,0 19,-13.17 19,-13.17 4.19,-2.75 7.56,-3.84 11,-7.51 3.68,-0.51 11.23,-4.55 14,-7 0,0 3,1 3,1 2.57,-3.44 6.14,-4.06 9.99,-5.57 0,0 23.01,-9.43 23.01,-9.43 0,0 25,-4.96 25,-4.96 5.66,-1.18 6,-2.67 12,-1.04 z m 440.57001,13.08 c 5.1,-1.29 6.77,4.98 8.07,8.92 3.63,11.02 3.49,19.67 3.36,31 0,0 -1,16 -1,16 -0.11,21.51 -9.24,42.23 -20.69,60 -3.95,6.12 -12.19,16.97 -17.35,21.83 -20.23,19.04 -43.12,25.92 -69.96,29.45 0,0 -15.00001,1.72 -15.00001,1.72 -6.49,0.07 -19.38,-0.5 -25,-3.44 -4.82,-2.53 -9.58,-8.11 -12.65,-12.56 -6.83,-9.88 -11.51,-20.31 -5.74,-32 2.76,-5.58 13.43,-14.92 18.39,-19.28 6.19,-5.45 21.83,-20.89 28.00001,-23.8 5.13,-2.42 16.71,-3.29 23,-4.82 13.38,-3.25 37.49,-10.84 49,-17.7 17.24,-10.28 23.7,-21.68 31.69,-39.4 1.99,-4.43 3.5,-12.95 5.88,-15.92 z m 12.43,126.36 c 24.07,-3.09 58.27,6.11 78,20 11.11,7.82 21.8,16.87 32,25.84 12.16,10.71 20.63,18.94 35,27.26 19.38,11.22 46.14,12.72 68,12.46 12.08,-0.15 27.85,-9.55 39,-14.78 2.93,-1.37 12.49,-6.41 15.36,-4.16 3.32,2.61 -3.74,13.39 -5.45,15.94 -9.24,13.81 -25.41,27.77 -38.91,37.42 -17.72,12.66 -49.12,31.92 -70,37.42 -8.51,2.25 -17.29,2.65 -26,3.25 -5.96,0.41 -8.33,1.28 -15,0.82 0,0 -65,-11.57 -65,-11.57 0,0 -11,0 -11,0 -2.49,0.21 -4.5,-0.84 -7,0 0,0 -19,14.58 -19,14.58 0,0 -46,48.08 -46,48.08 -3.29,3.29 -7.43,7.68 -11,10.48 -7.66,6.03 -13.83,7.32 -23,9.4 -14.2,3.23 -34.35,4.29 -49,4.12 -13.64001,-0.16 -40.31001,-9.11 -45.28001,-23 -1.41,-3.95 -0.53,-9.89 0,-14 0,0 4.48,-26 4.48,-26 0,0 5.88,-37 5.88,-37 1.85,-10.99 3.86,-17.42 3.92,-29 0,0 0.99,-16 0.99,-16 0,0 -1.29,-20 -1.29,-20 0,0 -1.4,-7 -1.4,-7 -0.39,-2.73 -0.87,-8.1 1.3,-10.15 2.71,-2.55 11.63,-1.81 15.4,-1.85 7.15,-0.09 15.81001,-2.42 23.00001,-3.8 0,0 16,-3.09 16,-3.09 11.26,-2.83 30.89,-10.82 41,-16.53 14.57,-8.24 15.58,-11.81 26,-18.35 9.17,-5.76 18.42,-8.84 29,-10.79 z m -894.00001,148.56 c -2.01,-7.16 0.35,-12.45 3.15,-19 5.27,-12.31 10.94,-20.42 18.98,-31 24.41,-32.1 63.38,-52.93 102.87,-59.57 16.02,-2.69 28.91,-2.61 45,-2.43 23.2,0.28 49.38,12.69 49.99,39 0.12,5.6 -0.24,7.62 -1.62,13 -7.22,28.09 -35.63,32.36 -60.37,34.09 0,0 -13,0.91 -13,0.91 0,0 -10,-0.91 -10,-0.91 0,0 -37,-3.18 -37,-3.18 0,0 -13,-0.91 -13,-0.91 -15.96,0.18 -46.68,9.09 -61,16.27 z m 247,150 c 0,0 -25,10.51 -25,10.51 -8.05,4.47 -22.69,18.1 -28.07,25.49 -4.55,6.23 -5.51,11.34 -8.71,18 -3.88,8.06 -16.45,27.23 -23.22,32.47 -6.65,5.15001 -16,7.61001 -24,9.95001 -12.56,3.68 -23.79,6.51 -37,6.58 0,0 -15,0.96 -15,0.96 0,0 -18,-0.96 -18,-0.96 -21.23,-0.25 -41.19,-7.06 -62,-9.72 -21.19,-2.7 -36.44,-1.73 -57,4.14 -12.91,3.69 -35.02,12.42 -44.91,21.2 -7.79,6.92 -5.85,16.91 -14.04,15.05 -6.32,-1.44 -6.1,-14.52 -6.05,-19.67 0.16,-13.9 5.05,-27.48001 10.7,-40.00001 10.53,-23.35 26.62,-43.78 46.3,-60.25 8.64,-7.22 19.59,-15.39 30,-19.74 29.18,-12.17 48.22,-12.83 78,-27.76 5.29,-2.65 11.46,-5.89 15.96,-9.72 7.55,-6.42 11.92,-16.79 16.29,-25.53 0,0 8.89,-18 8.89,-18 8.81,-19.78 14.35,-37.18 31.86,-51.54 18.68,-15.31 43.58,-24.41 67,-29.45 6.3,-1.35 21.34,-2.62 24.96,4.1 1.17,2.17 0.66,4.55 0.76,6.89 0,0 2.15,15 2.15,15 4.05,29.01 10.08,46.03 25.81,71 4.2,6.67 8.68,15.13 13.62,21 5.26,6.26 14.77,15.75 16.3,24 1.56,8.42 -8.73,15.69 -14.6,20 5.52,-1.49 20.68,-7.06 25.69,-3.82 2.31,1.49 2.14,3.73 4.62,6.78 2.28,2.81 5.7,5.03 8.69,7.04 4.46,2.99 14.31,7.83 15.53,13.01 0.99,4.23 -3.63,19.41 -5.22,23.99 -4.84,13.87 -14.17,34.97 -23.61,46 -4.57,5.34001 -8.7,8.48001 -13.7,13.08001 -13.06,12.02 -26.72,23.61 -37.37,37.92 -9.98,13.41 -16.01,25.04 -17.31,42 -0.24,3.15 0.29,4.16 0.51,7 0.51,6.73 -3.04,10.08 -8.66,4.85 -4.85,-4.5 -12.53,-15.7 -15.31,-21.85 0,0 -6.19,-17 -6.19,-17 -7.34,-22 -8.05,-29.81 -5.84,-53 0.7,-7.3 -0.4,-9.24 1.67,-18.00001 1.34,-5.66 5.22,-15.44 7.51,-21 3.57,-8.66 7.2,-17.56 13.01,-25 12.09,-15.51 29.43,-24.64 44.98,-36 z m -233,-167 c 0,0 -1,0 -1,0 0,0 1,1 1,1 z m 685,135 c 0.01,-14.14 5.83,-19.6 14.75,-29.99 3.63,-4.21 9.14,-9.55 15.25,-8.58 0,0 11,4.37 11,4.37 8.84,3.57 13.63,5.58 23,8.05 0,0 32.00001,5.98 32.00001,5.98 0,0 33,24.72 33,24.72 21.39,12.72 38.22,12.49 62,12.45 4.74,-0.01 14.47,-0.87 19,-2.06 3.2,-0.55 7.78,-2.39 10.69,0 2.99,2.13 2.32,6.23 0.57,9.06 -2.68,4.35 -11.18,11.43 -15.26,15.05 -12.9,11.45 -37.57,28.6 -54,33.73 -5.51,1.72 -10.28,2.21 -16,2.22 -30.82,0.05 -49.63,-2.9 -78.00001,-15.7 -5.19,-2.33 -10.16,-4.28 -15,-7.39 0,0 -13,-9.91 -13,-9.91 -16.27,-12.9 -26.5,-19.34 -27,-42 z m -9,7 c 10.07,2.28 10,9.75 17.04,19 5.24,6.89 21.73,22.17 28.96,26.92 15.45,10.16 25.37,11.44 42.00001,16.82 16.29,5.28 43.62,17.54 54.82,30.26 4.07,4.63 7.65,11.46 10.43,17 3.77,7.52001 6.87,14.78001 8.85,23.00001 4.62,19.18 3.22,51.27 0.62,71 0,0 -3.63,28 -3.63,28 -0.46,6.68 0.41,9.04 0.82,15 0.7,10.17 0.65,20.36 4.54,30 9.37,23.22 25.51,32.79 46.55,44.23 0,0 22,12.32 22,12.32 2.5,1.51 6.74,3.57 7.75,6.48 1.46,4.17 -3.78,5.98 -6.75,6.94 -7.91,2.57 -17.7,5.2 -26,5.02 0,0 -25,-3.74 -25,-3.74 0,0 -22,-4.4 -22,-4.4 0,0 -18,-6.65 -18,-6.65 -20.79,-8.32 -34.74,-15.34 -49.38,-33.2 -9.17,-11.18 -14.96001,-24.5 -22.04001,-37 0,0 -13.48,-21.96 -13.48,-21.96 0,0 -6.81,-8.08 -6.81,-8.08 -8.57,-11.35 -11.66,-16.72 -23.29,-26.16 -19.45,-15.78 -32.72,-15.98 -56,-20.8 -14.63,-3.03 -47.38,-12.12 -60,-18.78 -23.88,-12.6 -35.95,-27.77 -44.33,-53.22 -1.51,-4.58 -5.34,-18.67001 -4.34,-22.98001 1.11,-4.79 6.53,-6.82 10.67,-8.33 12.3,-4.48 19.19,-5.1 31,-11.84 0,0 23,-13.27 23,-13.27 0,0 21,-13.89 21,-13.89 6.13,-3.95 14.54,-8.46 20,-13.01 6.76,-5.64 26.23,-27.16 31,-34.68 z m -432,19 c 0,0 -1,0 -1,0 0,0 1,1 1,1 z m -2,1 c 0,0 -1,0 -1,0 0,0 1,1 1,1 z m -2,1 c 0,0 -1,0 -1,0 0,0 1,1 1,1 z m -1,1 c 0,0 -1,0 -1,0 0,0 1,1 1,1 z m -2,1 c 0,0 -1,0 -1,0 0,0 1,1 1,1 z m -2,1 c 0,0 -1,0 -1,0 0,0 1,1 1,1 z m 238,76 c 0,0 -13.54,27.00001 -13.54,27.00001 -3.1,7.95 -3.55,16.58 -3.46,25 0.28,23.83 13.31,61.73 19.37,86 2.44,9.76 5.51,21.97 5.63,32 0.15,13.32 -4.01,29.24 -10.32,41 -8.47,15.79 -30.67,37.04 -45.68,46.92 0,0 -32,21.38 -32,21.38 0,0 -9.96,9.53 -9.96,9.53 0,0 -9.65,9.26 -9.65,9.26 0,0 -5.84,9.91 -5.84,9.91 -6.45,10 -11.4,20.88 -11.55,33 0,0 0,20 0,20 -0.02,14.62 -4.72,35.69 -12.7,48 -2.63,4.06 -10.18,13.61 -15.99,9.96 -3.65,-2.29 -1.39,-9.04 -1.18,-12.68 0.52,-9.19 -1.97,-22.82 -5.56,-31.28 0,0 -19.23,-40 -19.23,-40 -2.57,-7.45 -4.42,-15.14 -5.41,-23 0,0 0,-8 0,-8 -1.79,-10.93 -4.36,-21.87 -4.36,-33 0,0 2.26,-23 2.26,-23 0.68,-6.75 1.16,-13.4 2.9,-20 3.94,-14.87 10.82,-23.33 18.96,-36 6.09,-9.47 10.48,-14.25 10.6,-26 0.18,-17.61 -17.85,-42.63 -26.43,-58 -16.36,-29.32 -22.91,-46.07 -22.86,-80 0.03,-19.40001 7.6,-35.41001 16.86,-52.00001 2.91,-5.21 8.16,-14.93 14.14,-16.57 4.79,-1.31 11.37,0.78 16,2.16 0,0 40,16.81 40,16.81 10.96,4.46 40.94,14.7 52,17.18 0,0 18,2.69 18,2.69 7.57,1.17 6.54,1.72 15,1.73 z m 26,-5.53 c 25.2,-3.52 32.4,11.17 43.14,30.53001 5.82,10.49 12.55,28.18 14.42,40 0,0 1.72,17 1.72,17 0,0 2.72,29 2.72,29 0.11,9.12 3.04,24.56 6.45,33 5.03,12.44 10.62,18.21 21.55,25.8 2.9,2.01 15.79,9.55 16.93,11.58 4.27,7.55 -9.96,8.61 -13.93,8.62 0,0 -4,0 -4,0 -11.36,-0.14 -37.68,-5.66 -48,-10.31 -9.56,-4.31 -11.99,-7.01 -20,-13.03 0,0 -11,-8.1 -11,-8.1 -10.64,-8.93 -21.06,-22.33 -27.69,-34.56 -8.14,-15.01 -10.94,-26.4 -13.72,-43 -4.14,-24.63 -8.07,-46.68 6.74,-69.00001 4.19,-6.31 5.84,-8.91 12.67,-12.69 4.31,-2.39 7.2,-3.7 12,-4.84 z"
     style="fill:url(#SolarGradient)" />
</svg>
